<svg width="80" height="15" viewBox="0 0 80 15" fill="none" xmlns="http://www.w3.org/2000/svg">
<path fill-rule="evenodd" clip-rule="evenodd" d="M7.67758 5.09759C4.99253 7.90115 2.16663 10.8498 1.39781 11.6501L0 13.1052L0.666044 13.7731L1.33209 14.4411H1.86986H2.40757L7.94822 8.66758C10.9955 5.49218 13.5101 2.88523 13.5363 2.87442C13.5624 2.8636 13.5769 4.23171 13.5686 5.91465L13.5534 8.97453L11.652 8.9899L9.75061 9.00534L8.37841 10.3785L7.00615 11.7517H10.2944H13.5826V13.0964V14.4411H14.6216H15.6605L16.2002 13.8992L16.7398 13.3573V6.67863V0L14.6496 0.000114191L12.5595 0.000178424L7.67758 5.09759ZM20.4816 6.68091V13.3618L21.0235 13.9015L21.5655 14.4411H27.3086H33.0518V13.6945V12.9479L32.5103 12.4086L31.9688 11.8694L27.8476 11.8544L23.7265 11.8394L23.7116 6.46125L23.6966 1.0832L23.1573 0.541567L22.618 0H21.5498H20.4816V6.68091ZM30.5962 0.805135V1.61027L31.1159 2.12746L31.6355 2.64471L34.5559 2.6757L37.4763 2.70662L37.5149 6.16214C37.5362 8.06269 37.5536 10.4732 37.5536 11.519L37.5537 13.4204L38.0664 13.9307L38.5792 14.4411H39.1721H39.7651L40.2661 13.9003L40.7671 13.3595L40.7682 8.03153L40.7693 2.70364L43.7072 2.66207L46.6452 2.62051L47.186 2.08607L47.7268 1.55169V0.775845V0H39.1615H30.5962V0.805135ZM51.187 0.547533L50.6501 1.09512V7.22844V13.3618L51.192 13.9015L51.7339 14.4411H57.7694H63.8049V13.5775V12.7139L63.2933 12.207L62.7818 11.7001L58.353 11.6585L53.9242 11.617V10.0473V8.47757H56.5844H59.2446V7.6301V6.78258L58.6745 6.2285L58.1045 5.67448L56.0143 5.67283L53.9242 5.6712V4.23878V2.80637H58.3249H62.7256L63.2653 2.26444L63.8049 1.72253V0.86126V0H57.7644H51.724L51.187 0.547533ZM67.4883 6.68091V13.3618L68.0302 13.9015L68.5721 14.4411H74.2861H80V13.6653V12.8894L79.4581 12.3498L78.9162 11.8101H74.8393H70.7624V6.4447V1.07928L70.2205 0.53964L69.6785 0H68.5834H67.4883V6.68091Z" fill="#EC008C"></path>
</svg>