<svg id="Layer_1" data-name="Layer 1" xmlns="http://www.w3.org/2000/svg" viewBox="0 0 48 48"><title>23. Heap Money</title><path d="M45.5,33.36H2.5a1,1,0,0,1-1-1V29a1,1,0,0,1,1-1h43a1,1,0,0,1,1,1v3.38A1,1,0,0,1,45.5,33.36Zm-42-2h41V30H3.5Z"/><path d="M45.5,36.74H2.5a1,1,0,0,1-1-1V32.36a1,1,0,0,1,1-1h43a1,1,0,0,1,1,1v3.38A1,1,0,0,1,45.5,36.74Zm-42-2h41V33.36H3.5Z"/><path d="M45.5,40.12H2.5a1,1,0,0,1-1-1V35.74a1,1,0,0,1,1-1h43a1,1,0,0,1,1,1v3.38A1,1,0,0,1,45.5,40.12Zm-42-2h41V36.74H3.5Z"/><path d="M45.5,30H2.5a1,1,0,0,1-1-1V8.88a1,1,0,0,1,1-1h43a1,1,0,0,1,1,1V29A1,1,0,0,1,45.5,30Zm-42-2h41V9.88H3.5Z"/><path d="M42.51,17.31a1.24,1.24,0,0,1-.27,0c-2.9-.79-4.74-2.64-5.19-5.21a1,1,0,0,1,1-1.17h4.47a1,1,0,0,1,1,1v4.41a1,1,0,0,1-1,1ZM39.4,12.9a4.48,4.48,0,0,0,2.11,2v-2Z"/><path d="M42.51,27H38a1,1,0,0,1-1-1.17c.45-2.57,2.29-4.42,5.2-5.21a1,1,0,0,1,.86.17,1,1,0,0,1,.4.8V26A1,1,0,0,1,42.51,27ZM39.4,25h2.11V23A4.48,4.48,0,0,0,39.4,25Z"/><path d="M10,27H5.49a1,1,0,0,1-1-1V21.55a1,1,0,0,1,.39-.8,1,1,0,0,1,.87-.17c2.9.79,4.75,2.64,5.19,5.21A1,1,0,0,1,10,27ZM6.49,25h2.1a4.46,4.46,0,0,0-2.1-2Z"/><path d="M5.49,17.31a1,1,0,0,1-1-1V11.9a1,1,0,0,1,1-1H10a1,1,0,0,1,1,1.17c-.44,2.57-2.29,4.42-5.19,5.21Zm1-4.41v2a4.41,4.41,0,0,0,2.11-2Z"/><path d="M24,27.06a8.13,8.13,0,1,1,8.13-8.13A8.14,8.14,0,0,1,24,27.06ZM24,12.8a6.13,6.13,0,1,0,6.13,6.13A6.14,6.14,0,0,0,24,12.8Z"/><path d="M25.91,24.08h-.14a5.08,5.08,0,0,1-3.57-1.61,5.14,5.14,0,0,1-1.4-3.69,5.07,5.07,0,0,1,1.62-3.59,5.26,5.26,0,0,1,3.68-1.4h.14a1,1,0,0,1,1,1,1.08,1.08,0,0,1-1.21,1,3.16,3.16,0,0,0-3.19,3,3.14,3.14,0,0,0,3.05,3.24H26a1,1,0,0,1,.95,1A1,1,0,0,1,25.91,24.08Z"/><path d="M25.26,18.63h0l-4.76-.14a1,1,0,1,1,.06-2l4.76.14a1,1,0,0,1,0,2Z"/><path d="M25.2,21.42h0l-4.76-.14a1,1,0,0,1,.06-2l4.76.14a1,1,0,0,1,0,2Z"/></svg>