<svg width="57" height="57" viewBox="0 0 57 57" fill="none" xmlns="http://www.w3.org/2000/svg">
<path d="M28.451 0C13.4665 0 1.17526 11.5357 0 26.2219L15.2783 32.523C16.5515 31.6505 18.1186 31.1173 19.8325 31.1173C19.9794 31.1173 20.1263 31.1173 20.2732 31.1173L27.0799 21.2781V21.1327C27.0799 15.2194 31.9278 10.3725 37.8531 10.3725C43.7784 10.3725 48.6263 15.1709 48.6263 21.1327C48.6263 27.0459 43.7784 31.8929 37.8531 31.8929C37.7552 31.8929 37.7062 31.8929 37.6083 31.8929L27.9124 38.824C27.9124 38.9694 27.9124 39.0663 27.9124 39.2117C27.9124 43.6709 24.2887 47.2577 19.8325 47.2577C15.915 47.2577 12.634 44.4464 11.8995 40.7628L0.979382 36.2551C4.35825 48.227 15.3763 57 28.451 57C44.2191 57 57 44.2526 57 28.5C56.951 12.7475 44.1701 0 28.451 0ZM17.8737 43.2347L14.3479 41.7806C14.9845 43.0893 16.0619 44.1556 17.482 44.7373C20.567 45.9975 24.1418 44.5434 25.415 41.4898C26.0515 39.9872 26.0515 38.3393 25.415 36.8367C24.7784 35.3342 23.6521 34.1709 22.134 33.5408C20.6649 32.9107 19.049 32.9592 17.6778 33.4923L21.3015 34.9949C23.5541 35.9643 24.6314 38.5332 23.701 40.8112C22.7706 43.1378 20.1753 44.2041 17.8737 43.2347ZM45.0026 21.1327C45.0026 17.2066 41.7706 13.9592 37.8531 13.9592C33.8866 13.9592 30.7036 17.1582 30.7036 21.1327C30.7036 25.0587 33.9356 28.3061 37.8531 28.3061C41.8196 28.3061 45.0026 25.1071 45.0026 21.1327ZM32.4665 21.1327C32.4665 18.176 34.866 15.7526 37.8531 15.7526C40.8402 15.7526 43.2397 18.176 43.2397 21.1327C43.2397 24.0893 40.8402 26.5128 37.8531 26.5128C34.866 26.5128 32.4665 24.0893 32.4665 21.1327Z" fill="#101B35"/>
</svg>
